<svg width="73" height="12" viewBox="0 0 73 12" fill="none" xmlns="http://www.w3.org/2000/svg">
  <path d="M4.31055 0H4.43029L5.18863 1.75182L5.82723 3.24088L6.50574 4.81752L7.14434 6.30657L7.54347 7.27007H7.62329L8.26189 5.78102L9.02023 3.9854L9.65883 2.49635L10.1378 1.35766L10.6566 0.0875912L10.7764 0L12.1733 0.70073L13.69 1.48905L14.8075 2.05839L15.1268 2.23358L15.0869 2.45255L14.3685 4.16058L13.7698 5.60584L13.0913 7.18248L12.4926 8.62774L11.8141 10.2044L11.5746 10.7299L11.2553 11.1679L10.9759 11.4745L10.6167 11.7372L10.2176 11.9124L9.81848 12H9.29962L8.86058 11.8686L8.38163 11.6058L7.9825 11.2117L7.70312 10.8613L7.62329 10.7299H7.54347L7.30399 11.0803L7.14434 11.2993L6.66539 11.6934L6.18644 11.9124L5.78732 12H5.30837L4.82942 11.8686L4.43029 11.6496L4.03116 11.2993L3.71186 10.9051L3.35265 10.2044L2.63423 8.54015L2.15528 7.40146L1.43685 5.73723L0.917988 4.51095L0.279388 3.0219L0 2.36496V2.23358L1.31711 1.53285L3.55221 0.394161L4.31055 0ZM11.3352 1.83942L10.8562 2.93431L10.2575 4.37956L9.73866 5.56204L9.13997 7.0073L8.58119 8.27737L8.3018 8.93431L8.34172 9.19708L8.66102 9.89781L8.90049 10.2482L9.13997 10.4672L9.41936 10.5985H9.81848L10.1378 10.4234L10.4571 10.073L10.7764 9.37226L11.3751 7.9708L11.9738 6.52555L12.6523 4.9489L13.4505 3.0219V2.89051L11.3751 1.83942H11.3352ZM3.75178 1.83942L2.39475 2.54015L1.75615 2.84672L1.67633 3.0219L1.99563 3.72263L2.5544 5.0365L3.23291 6.61314L3.75178 7.83942L4.39038 9.32847L4.70968 10.0292L4.98907 10.3796L5.38819 10.5985H5.78732L6.10662 10.4234L6.34609 10.2044L6.62548 9.72263L6.86495 9.15328L6.82504 8.84671L6.30618 7.66423L5.78732 6.43796L5.06889 4.77372L4.43029 3.28467L3.87151 1.92701L3.75178 1.83942Z" fill="#202739"/>
  <path d="M44.4227 4.24805H44.9016L45.181 4.42323L45.4205 4.77359L45.7398 5.64951L46.2587 7.26994L46.7376 8.759V8.84659L46.8174 8.80279L47.5359 6.61301L48.1745 4.64221L48.2543 4.46702L48.4938 4.51082L49.4916 4.90498L49.5714 4.94878L49.4517 5.34294L48.0148 9.32834L47.7753 9.85389L47.456 10.248L47.1367 10.4232L46.9771 10.467H46.578L46.2587 10.3356L45.9793 10.1167L45.6999 9.6787L45.3008 8.62761L44.6622 6.83199L44.4626 7.35754L43.7043 9.45973L43.4648 9.94148L43.1455 10.2918L42.7464 10.467H42.3073L41.9082 10.2918L41.5889 9.94148L41.2696 9.24075L40.631 7.48892L39.9126 5.47432L39.7529 5.03637L39.7928 4.90498L40.7907 4.51082L41.0301 4.42323L41.1898 4.81739L41.988 7.26994L42.5069 8.84659L42.6665 8.45243L43.3451 6.35024L43.824 4.90498L44.0236 4.55462L44.303 4.29184L44.4227 4.24805Z" fill="#202739"/>
  <path d="M34.724 4.24805H35.5222L36.0012 4.37943L36.3604 4.59841L36.7196 4.94878L36.7595 4.42323L36.7994 4.37943H38.0766L38.1166 4.42323V10.2918L37.917 10.3356L36.7994 10.2918L36.7595 10.248V9.94148L36.7994 9.7225L36.4402 10.0291L36.0411 10.2918L35.6819 10.4232L35.4424 10.467H34.8038L34.3249 10.3356L33.6863 9.98527L33.2073 9.50352L32.8481 8.89038L32.6086 8.18965L32.5288 7.62031V7.09476L32.6485 6.39403L32.8481 5.82469L33.0876 5.38673L33.4468 4.94878L33.7262 4.686L34.3648 4.33564L34.724 4.24805ZM35.0034 5.64951L34.6043 5.82469L34.2051 6.21885L34.0056 6.61301L33.8858 7.09476V7.62031L34.0455 8.18965L34.285 8.58381L34.5643 8.84659L34.9236 9.02177L35.0832 9.06557H35.642L36.1209 8.84659L36.4402 8.54002L36.6797 8.14586L36.7994 7.66411V7.00717L36.6797 6.56921L36.4003 6.08746L36.081 5.82469L35.642 5.64951H35.0034Z" fill="#202739"/>
<path d="M52.0459 4.24805H52.8441L53.3231 4.37943L53.7621 4.686L54.0415 4.94878V4.37943H55.3586L55.3985 4.42323V10.2918L54.1613 10.3356L54.0814 10.2918L54.0415 9.76629L53.6424 10.1167L53.2433 10.3356L52.7643 10.467H52.0858L51.6069 10.3356L51.0481 10.0291L50.649 9.6787L50.3297 9.24075L50.0104 8.54002L49.8507 7.83929V6.91958L49.9704 6.30644L50.17 5.78089L50.4494 5.29914L50.8086 4.86119L51.3674 4.46702L51.8463 4.29184L52.0459 4.24805ZM52.3253 5.64951L51.9661 5.78089L51.6069 6.08746L51.3674 6.48162L51.2077 6.96338V7.7517L51.3674 8.23345L51.6069 8.58381L51.8862 8.84659L52.2455 9.02177L52.4051 9.06557H52.924L53.363 8.89038L53.7222 8.58381L53.9617 8.18965L54.0814 7.83929L54.1213 7.22615L54.0016 6.61301L53.7621 6.17505L53.4428 5.86848L53.0836 5.6933L52.924 5.64951H52.3253Z" fill="#202739"/>
  <path d="M64.4986 4.24805H65.3368L65.9754 4.42323L66.4144 4.686L66.8136 5.08016L67.093 5.43053L67.4123 6.17505L67.532 6.7444V7.88308H63.6206L63.9399 8.58381L64.2193 8.84659L64.6583 9.06557L64.8978 9.10936H65.3368L65.8557 8.97797L66.2947 8.7152L66.4544 8.58381L66.6539 8.759L66.9333 9.10936L67.2526 9.45973L67.2925 9.59111L66.8934 9.94148L66.2947 10.248L65.6561 10.4232L65.3767 10.467H64.5785L63.9399 10.2918L63.3013 9.94148L62.8223 9.45973L62.5429 8.97797L62.3434 8.49622L62.2236 8.01447L62.1837 7.62031V7.13856L62.2635 6.52542L62.4232 5.99987L62.6627 5.47432L63.1017 4.94878L63.4609 4.64221L63.9399 4.37943L64.4986 4.24805ZM64.778 5.51812L64.4188 5.60571L64.0596 5.86848L63.7802 6.21885L63.6206 6.61301V6.83199H66.175L66.0951 6.43783L65.9355 6.08746L65.7359 5.82469L65.257 5.56192L64.778 5.51812Z" fill="#202739"/>
  <path d="M69.2083 2.62714H70.4855L70.5254 2.67093V4.46655H72.6008V5.78042L72.521 5.82422H70.5254L70.5653 8.36436L70.685 8.71473L70.8846 8.88991L71.2837 9.0213L71.7227 8.9775L72.2017 8.75852L72.4013 8.62714L72.5609 8.71473L72.8802 9.50305L72.9999 9.85341L72.4412 10.2038L71.9622 10.379L71.5232 10.4666H70.8048L70.3258 10.3352L69.9267 10.1162L69.5675 9.72203L69.2881 9.10889L69.2083 8.67093L69.1683 7.61984V5.82422H68.1705L68.1306 5.78042V4.42276L69.1683 4.46655V2.67093L69.2083 2.62714Z" fill="#202739"/>
  <path d="M18.8387 4.46722H19.0383L19.3177 5.34314L20.1559 7.92708L20.4352 8.75919V8.84679H20.5151L20.6348 8.40883L21.3133 6.30664L21.8322 4.73L21.912 4.46722L22.1914 4.51102L23.1892 4.90518L23.2291 5.08036L22.9098 5.95628L22.2712 7.7519L21.6725 9.41613L21.4331 9.89788L21.1936 10.2045L20.9142 10.3796L20.6747 10.4672H20.2357L19.8765 10.292L19.5971 10.0293L19.2778 9.41613L18.5194 7.31394L17.7611 5.16795L17.6813 4.94898L18.8387 4.46722Z" fill="#202739"/>
  <path d="M27.8988 4.42328L28.0185 4.51087L28.3378 5.51817L28.8567 7.09481L29.4155 8.80284L29.4953 8.84664L29.615 8.36488L30.3335 6.1751L30.8124 4.72985L30.8922 4.46707L31.1716 4.51087L32.1694 4.90503L32.2093 5.08021L31.7703 6.26269L31.012 8.40868L30.5729 9.59116L30.3335 9.98532L30.1339 10.2043L29.8944 10.3795L29.6549 10.4671H29.2159L28.8966 10.3357L28.5374 9.98532L28.1782 9.2408L27.4598 7.2262L26.7812 5.29919L26.7014 5.08021V4.90503L27.5396 4.59846L27.8988 4.42328Z" fill="#202739"/>
  <path d="M56.8354 1.53247H58.1126L58.1526 1.57627V10.2916L56.8354 10.3354L56.7955 10.1602V1.57627L56.8354 1.53247Z" fill="#202739"/>
  <path d="M59.6692 1.53247H60.9863V10.2916L59.7091 10.3354L59.6692 10.2916V1.53247Z" fill="#202739"/>
  <path d="M25.504 4.37909L25.6237 4.42288V10.2915L24.3066 10.3353L24.2667 10.2039V4.42288L25.504 4.37909Z" fill="#202739"/>
  <path d="M24.666 1.48932H25.1848L25.5041 1.6645L25.7436 2.01487L25.8234 2.32144L25.7835 2.6718L25.6239 2.97837L25.4243 3.19735L25.1449 3.32873H24.7458L24.4664 3.19735L24.187 2.84698L24.1072 2.6718V2.14625L24.2668 1.79589L24.5861 1.53311L24.666 1.48932Z" fill="#202739"/>
</svg>